<svg width="42" height="42" viewBox="0 0 42 42" fill="none" xmlns="http://www.w3.org/2000/svg">
<path d="M6.125 35C5.425 35 4.8125 34.7375 4.2875 34.2125C3.7625 33.6875 3.5 33.075 3.5 32.375V9.625C3.5 8.925 3.7625 8.3125 4.2875 7.7875C4.8125 7.2625 5.425 7 6.125 7H35.875C36.575 7 37.1875 7.2625 37.7125 7.7875C38.2375 8.3125 38.5 8.925 38.5 9.625V32.375C38.5 33.075 38.2375 33.6875 37.7125 34.2125C37.1875 34.7375 36.575 35 35.875 35H6.125ZM21 21.7875L6.125 12.0312V32.375H35.875V12.0312L21 21.7875ZM21 19.1625L35.7 9.625H6.34375L21 19.1625ZM6.125 12.0312V9.625V12.0312V32.375V12.0312Z" fill="#52525B"/>
</svg>
