<svg width="42" height="32" viewBox="0 0 42 32" fill="none" xmlns="http://www.w3.org/2000/svg">
<path d="M21 25.0667C23.2591 25.0667 25.1761 24.1867 26.7511 22.4267C28.3261 20.6667 29.1136 18.5244 29.1136 16C29.1136 13.4756 28.3261 11.3333 26.7511 9.57333C25.1761 7.81333 23.2591 6.93333 21 6.93333C18.7409 6.93333 16.8239 7.81333 15.2489 9.57333C13.6739 11.3333 12.8864 13.4756 12.8864 16C12.8864 18.5244 13.6739 20.6667 15.2489 22.4267C16.8239 24.1867 18.7409 25.0667 21 25.0667ZM21 21.9733C19.5045 21.9733 18.2398 21.3956 17.2057 20.24C16.1716 19.0844 15.6545 17.6711 15.6545 16C15.6545 14.3289 16.1716 12.9156 17.2057 11.76C18.2398 10.6044 19.5045 10.0267 21 10.0267C22.4955 10.0267 23.7602 10.6044 24.7943 11.76C25.8284 12.9156 26.3455 14.3289 26.3455 16C26.3455 17.6711 25.8284 19.0844 24.7943 20.24C23.7602 21.3956 22.4955 21.9733 21 21.9733ZM21 32C16.3545 32 12.1545 30.5244 8.4 27.5733C4.64545 24.6222 1.84545 20.7644 0 16C1.84545 11.2356 4.64545 7.37778 8.4 4.42667C12.1545 1.47556 16.3545 0 21 0C25.6455 0 29.8455 1.47556 33.6 4.42667C37.3545 7.37778 40.1545 11.2356 42 16C40.1545 20.7644 37.3545 24.6222 33.6 27.5733C29.8455 30.5244 25.6455 32 21 32ZM21 28.8C24.85 28.8 28.3898 27.6356 31.6193 25.3067C34.8489 22.9778 37.3068 19.8756 38.9932 16C37.3068 12.1244 34.8489 9.02222 31.6193 6.69333C28.3898 4.36444 24.85 3.2 21 3.2C17.15 3.2 13.6102 4.36444 10.3807 6.69333C7.15114 9.02222 4.67727 12.1244 2.95909 16C4.67727 19.8756 7.15114 22.9778 10.3807 25.3067C13.6102 27.6356 17.15 28.8 21 28.8Z" fill="#5B5B67"/>
</svg>
