<svg width="42" height="44" viewBox="0 0 42 44" fill="none" xmlns="http://www.w3.org/2000/svg">
<path d="M21 1.82605C23.3042 1.82605 25.2656 2.67062 26.8844 4.35975C28.5031 6.04888 29.3125 8.09561 29.3125 10.5V14.8826H32.375C33.1042 14.8826 33.724 15.1489 34.2344 15.6815C34.7448 16.2141 35 16.8608 35 17.6217V37.4347C35 38.1956 34.7448 38.8424 34.2344 39.375C33.724 39.9076 33.1042 40.1739 32.375 40.1739H9.625C8.89583 40.1739 8.27604 39.9076 7.76562 39.375C7.25521 38.8424 7 38.1956 7 37.4347V17.6217C7 16.8608 7.25521 16.2141 7.76562 15.6815C8.27604 15.1489 8.89583 14.8826 9.625 14.8826H12.6875V10.5C12.6875 8.09561 13.4969 6.04888 15.1156 4.35975C16.7344 2.67062 18.6958 1.82605 21 1.82605ZM21 4.56518C19.425 4.56518 18.0833 5.14344 16.975 6.29996C15.8667 7.45648 15.3125 8.85648 15.3125 10.5V14.8826H26.6875V10.5C26.6875 8.85648 26.1333 7.45648 25.025 6.29996C23.9167 5.14344 22.575 4.56518 21 4.56518ZM9.625 37.4347H32.375V17.6217H9.625V37.4347ZM21 24.013C20.0667 24.013 19.2719 24.3858 18.6156 25.1315C17.9594 25.8771 17.6312 26.7065 17.6312 27.6195C17.6312 28.563 17.9594 29.3695 18.6156 30.0391C19.2719 30.7087 20.0667 31.0434 21 31.0434C21.9333 31.0434 22.7281 30.7087 23.3844 30.0391C24.0406 29.3695 24.3687 28.563 24.3687 27.6195C24.3687 26.7065 24.0406 25.8771 23.3844 25.1315C22.7281 24.3858 21.9333 24.013 21 24.013ZM9.625 17.6217V37.4347V17.6217Z" fill="#52525B"/>
</svg>
