<svg width="16" height="16" viewBox="0 0 16 16" fill="none" xmlns="http://www.w3.org/2000/svg">
<g clip-path="url(#clip0_365_374)">
<path d="M7.98367 1.45164C9.2756 1.45164 10.5385 1.83474 11.6127 2.5525C12.6869 3.27025 13.5241 4.29043 14.0185 5.48401C14.5129 6.6776 14.6423 7.99098 14.3903 9.25808C14.1382 10.5252 13.5161 11.6891 12.6026 12.6026C11.689 13.5162 10.5251 14.1383 9.25802 14.3903C7.99092 14.6424 6.67753 14.513 5.48395 14.0186C4.29036 13.5242 3.27019 12.687 2.55243 11.6128C1.83468 10.5386 1.45158 9.27566 1.45158 7.98374C1.45827 6.25338 2.14862 4.5958 3.37217 3.37224C4.59573 2.14868 6.25331 1.45833 7.98367 1.45164ZM7.98367 6.68116e-05C6.40606 0.00652074 4.86572 0.480235 3.55712 1.36141C2.24851 2.24258 1.23031 3.4917 0.631049 4.95108C0.0317888 6.41046 -0.121662 8.01468 0.190068 9.5612C0.501798 11.1077 1.26473 12.5272 2.38256 13.6405C3.50038 14.7538 4.92299 15.5109 6.47077 15.8163C8.01855 16.1217 9.62212 15.9617 11.079 15.3565C12.536 14.7513 13.7809 13.728 14.6567 12.4158C15.5326 11.1036 16 9.56136 16 7.98374C16 6.93255 15.7924 5.89171 15.3892 4.92096C14.9859 3.9502 14.3949 3.06863 13.6501 2.32685C12.9053 1.58507 12.0213 0.997679 11.0489 0.598388C10.0765 0.199097 9.03485 -0.00423349 7.98367 6.68116e-05Z" fill="#F2F2F2"/>
<path d="M11.707 7.38129H8.49535V4.16968H7.41393V7.38129H4.19868V8.46271H7.41393V11.6743H8.49535V8.46271H11.707V7.38129Z" fill="#F2F2F2"/>
</g>
<defs>
<clipPath id="clip0_365_374">
<rect width="16" height="16" fill="white"/>
</clipPath>
</defs>
</svg>
