<svg width="48" height="48" viewBox="0 0 48 48" fill="none" xmlns="http://www.w3.org/2000/svg">
<path d="M24 23.95C21.8 23.95 20 23.25 18.6 21.85C17.2 20.45 16.5 18.65 16.5 16.45C16.5 14.25 17.2 12.45 18.6 11.05C20 9.64995 21.8 8.94995 24 8.94995C26.2 8.94995 28 9.64995 29.4 11.05C30.8 12.45 31.5 14.25 31.5 16.45C31.5 18.65 30.8 20.45 29.4 21.85C28 23.25 26.2 23.95 24 23.95ZM8 40V35.2999C8 34.0333 8.31667 32.9499 8.95 32.0499C9.58333 31.15 10.4 30.4666 11.4 30C13.6333 29 15.775 28.25 17.825 27.75C19.875 27.25 21.9333 27 24 27C26.0667 27 28.1167 27.2583 30.15 27.775C32.1833 28.2916 34.3167 29.0333 36.55 30C37.5833 30.4666 38.4167 31.15 39.05 32.0499C39.6833 32.9499 40 34.0333 40 35.2999V40H8ZM11 37H37V35.2999C37 34.7666 36.8417 34.2583 36.525 33.775C36.2083 33.2916 35.8167 32.9333 35.35 32.7C33.2167 31.6666 31.2667 30.9583 29.5 30.575C27.7333 30.1916 25.9 30 24 30C22.1 30 20.25 30.1916 18.45 30.575C16.65 30.9583 14.7 31.6666 12.6 32.7C12.1333 32.9333 11.75 33.2916 11.45 33.775C11.15 34.2583 11 34.7666 11 35.2999V37ZM24 20.95C25.3 20.95 26.375 20.525 27.225 19.675C28.075 18.825 28.5 17.75 28.5 16.45C28.5 15.15 28.075 14.075 27.225 13.225C26.375 12.375 25.3 11.95 24 11.95C22.7 11.95 21.625 12.375 20.775 13.225C19.925 14.075 19.5 15.15 19.5 16.45C19.5 17.75 19.925 18.825 20.775 19.675C21.625 20.525 22.7 20.95 24 20.95Z" fill="#5B5B67"/>
</svg>
